<?xml version="1.0" encoding="UTF-8" standalone="no"?>
<!DOCTYPE svg PUBLIC "-//W3C//DTD SVG 1.1//EN" "http://www.w3.org/Graphics/SVG/1.1/DTD/svg11.dtd">
<svg width="100%" height="100%" viewBox="0 0 512 512" version="1.1" xmlns="http://www.w3.org/2000/svg" xmlns:xlink="http://www.w3.org/1999/xlink" xml:space="preserve" xmlns:serif="http://www.serif.com/" style="fill-rule:evenodd;clip-rule:evenodd;stroke-linecap:round;stroke-linejoin:round;stroke-miterlimit:1.5;">
    <g transform="matrix(0.445521,0,0,0.445521,274,254)">
        <g transform="matrix(1,0,0,1,-460.417,-564.583)">
            <g transform="matrix(4.16667,0,0,4.16667,-658.333,-204.167)">
                <g transform="matrix(0.948426,0,0,0.944424,15.3931,-12.3118)">
                    <path d="M255.442,129.19C306.008,129.19 352.001,203.836 352.001,254.401C352.001,304.967 306.008,341.08 255.442,341.08C204.877,341.08 159.872,304.967 159.872,254.401C159.872,203.836 204.877,129.19 255.442,129.19Z" style="fill:rgb(255,117,0);"/>
                </g>
                <path d="M278.78,123.497C278.78,123.497 345.291,168.198 332.533,239.514C319.195,314.078 221.004,297.479 221.004,297.479" style="fill:none;stroke:rgb(220,99,0);stroke-width:25px;"/>
                <g transform="matrix(1.01211,0,0,1.01211,-0.90683,-27.4819)">
                    <path d="M255.442,129.19C306.008,129.19 352.001,203.836 352.001,254.401C352.001,304.967 306.008,341.08 255.442,341.08C204.877,341.08 159.872,304.967 159.872,254.401C159.872,203.836 204.877,129.19 255.442,129.19ZM255.442,145.657C239.498,145.657 224.711,155.911 212.159,169.76C191.002,193.103 176.339,227.526 176.339,254.401C176.339,295.854 213.99,324.613 255.442,324.613C296.949,324.613 335.534,295.908 335.534,254.401C335.534,227.544 320.534,193.16 299.139,169.832C286.399,155.939 271.437,145.657 255.442,145.657Z" style="fill:rgb(36,14,0);"/>
                </g>
                <g transform="matrix(0.973021,-0.230715,0.230715,0.973021,8.49256,92.0451)">
                    <g transform="matrix(0.861885,-2.77556e-17,2.77556e-17,0.861885,42.1561,7.24516)">
                        <path d="M300.171,32.142C318.988,31.304 363.953,45.43 363.953,59.979C363.953,74.529 317.707,86.314 300.171,84.866C285.671,83.669 251.16,73.601 251.16,59.051C251.16,44.502 285.636,32.789 300.171,32.142Z" style="fill:rgb(220,99,0);"/>
                    </g>
                    <path d="M300.171,32.142C318.988,31.304 363.953,45.43 363.953,59.979C363.953,74.529 317.707,86.314 300.171,84.866C285.671,83.669 251.16,73.601 251.16,59.051C251.16,44.502 285.636,32.789 300.171,32.142ZM271.167,58.823C271.521,59.049 271.868,59.258 272.193,59.434C281.449,64.464 294.436,67.669 301.543,68.256C310.284,68.977 327.549,65.427 340.014,60.111C340.426,59.935 340.857,59.735 341.298,59.518C340.743,59.205 340.195,58.914 339.669,58.66C327.412,52.737 310.291,48.375 300.913,48.792C294.031,49.098 281.533,52.701 272.597,57.892C272.148,58.153 271.66,58.475 271.167,58.823Z" style="fill:rgb(36,14,0);"/>
                </g>
                <g transform="matrix(1,0,0,1,0,22.2898)">
                    <path d="M247.612,48.342C257.937,64.058 261.102,76.012 260.63,87.408" style="fill:none;stroke:rgb(36,14,0);stroke-width:20.83px;"/>
                </g>
                <g transform="matrix(1,0,0,1,0,22.2898)">
                    <path d="M261,72.331L273.601,68.375" style="fill:none;stroke:rgb(36,14,0);stroke-width:18.75px;"/>
                </g>
                <g transform="matrix(1.15146,0.382085,-0.584691,1.76203,72.7341,-245.79)">
                    <ellipse cx="295.941" cy="201.543" rx="10.572" ry="13.332" style="fill:rgb(36,14,0);"/>
                </g>
            </g>
        </g>
    </g>
</svg>
